<?xml version="1.0" standalone="no"?>
<!DOCTYPE svg PUBLIC "-//W3C//DTD SVG 20010904//EN"
 "http://www.w3.org/TR/2001/REC-SVG-20010904/DTD/svg10.dtd">
<svg version="1.0" xmlns="http://www.w3.org/2000/svg"
 width="2048.000000pt" height="2048.000000pt" viewBox="0 0 2048.000000 2048.000000"
 preserveAspectRatio="xMidYMid meet">
<metadata>
Created by potrace 1.14, written by Peter Selinger 2001-2017
</metadata>
<g transform="translate(0.000000,2048.000000) scale(0.100000,-0.100000)"
fill="#000000" stroke="none">
<path d="M0 10240 l0 -10240 10240 0 10240 0 0 10240 0 10240 -10240 0 -10240
0 0 -10240z m15298 1496 c-2 -2937 -6 -4138 -14 -4146 -7 -7 -73 54 -230 217
-120 125 -260 270 -311 323 -50 52 -104 109 -119 125 -61 69 -149 164 -345
375 -64 69 -138 150 -164 180 -65 75 -300 323 -471 500 -77 80 -214 224 -304
320 -90 96 -238 254 -329 350 -144 151 -223 235 -306 324 -47 50 -327 348
-406 431 -105 111 -211 224 -354 380 -111 121 -156 170 -365 396 -64 68 -136
147 -161 174 -70 77 -273 299 -279 305 -3 3 -54 59 -115 125 -60 66 -145 158
-190 205 -160 170 -203 217 -295 320 -51 58 -127 141 -169 186 -42 44 -123
132 -182 195 -58 63 -163 177 -235 254 -71 77 -133 145 -139 151 -5 6 -47 51
-92 100 -44 49 -93 103 -108 119 -15 17 -69 73 -119 125 -51 52 -148 156 -216
230 -68 74 -159 171 -201 215 -41 44 -134 143 -205 220 -71 77 -136 147 -144
156 -8 8 -67 71 -130 140 -63 68 -151 162 -196 209 -146 155 -589 634 -715
775 -24 27 -63 69 -86 94 -23 25 -40 48 -38 51 2 4 1744 8 3870 9 l3866 3 -3
-4136z m-12339 3917 c108 -109 248 -253 311 -319 63 -65 169 -175 235 -244
283 -293 711 -743 809 -850 53 -58 200 -214 442 -470 44 -47 105 -112 134
-145 44 -50 146 -160 306 -330 16 -17 90 -96 164 -175 74 -79 169 -180 211
-225 151 -160 529 -564 669 -714 73 -78 280 -299 315 -336 22 -23 67 -71 99
-106 32 -35 88 -95 125 -134 36 -38 92 -99 125 -135 63 -68 140 -151 265 -285
41 -44 129 -136 195 -205 67 -69 159 -166 205 -215 46 -50 140 -148 210 -220
70 -71 208 -215 306 -320 99 -104 281 -295 405 -425 124 -130 260 -274 304
-320 43 -47 194 -204 335 -349 141 -145 271 -280 290 -300 67 -71 287 -307
361 -386 41 -44 100 -107 131 -140 31 -33 79 -84 105 -114 27 -30 63 -68 79
-86 17 -17 57 -60 89 -96 33 -35 98 -105 145 -154 113 -119 259 -274 346 -366
261 -278 344 -366 375 -398 36 -37 261 -277 320 -341 100 -108 275 -296 345
-370 44 -47 103 -110 130 -140 27 -30 89 -98 139 -150 50 -53 159 -169 241
-260 208 -228 817 -878 997 -1065 53 -55 105 -110 115 -121 10 -12 74 -81 143
-154 69 -73 132 -141 141 -152 9 -10 88 -94 176 -186 222 -233 520 -549 568
-601 22 -24 49 -53 60 -65 22 -22 79 -84 240 -261 221 -242 534 -563 589 -604
l29 -21 -2 -137 c-1 -76 -4 -140 -7 -143 -5 -5 -202 193 -423 425 -58 61 -152
160 -210 220 -58 61 -169 178 -246 260 -77 82 -183 195 -235 250 -52 55 -156
165 -230 245 -74 80 -171 183 -215 230 -44 47 -143 152 -220 235 -165 177
-273 291 -411 435 -56 58 -148 157 -204 220 -107 119 -161 178 -291 315 -42
44 -103 109 -135 145 -33 35 -97 105 -144 155 -47 49 -130 140 -185 200 -55
61 -136 148 -181 195 -109 116 -220 234 -339 365 -100 110 -179 194 -355 380
-52 55 -99 105 -105 111 -162 179 -286 312 -621 664 -55 58 -143 150 -195 205
-100 106 -311 326 -369 385 -19 20 -82 85 -140 146 -57 60 -152 159 -210 219
-169 178 -341 361 -560 595 -23 25 -76 81 -119 125 -42 44 -123 131 -181 194
-58 62 -127 136 -154 165 -27 28 -157 166 -289 306 -132 140 -250 265 -261
276 -231 236 -660 687 -841 884 -38 41 -141 151 -229 245 -89 93 -201 212
-251 265 -49 52 -128 136 -175 185 -47 50 -134 145 -195 210 -60 66 -137 149
-170 185 -33 36 -98 106 -145 155 -152 161 -278 296 -565 605 -110 118 -283
303 -385 410 -101 107 -189 200 -195 206 -20 21 -352 370 -455 479 -58 60
-171 180 -250 265 -80 85 -181 193 -225 240 -44 47 -161 171 -261 275 -99 105
-250 264 -334 355 -85 91 -212 227 -284 303 -72 76 -137 147 -146 156 -8 10
-100 111 -205 225 -104 115 -192 213 -194 218 -2 6 38 8 110 5 l112 -4 196
-200z m774 106 c45 -46 158 -165 251 -264 93 -99 276 -290 405 -425 361 -374
387 -402 786 -844 44 -49 85 -94 90 -100 6 -6 39 -42 74 -81 35 -38 98 -106
140 -150 42 -44 99 -105 126 -135 28 -31 104 -114 171 -185 66 -72 215 -233
330 -360 196 -215 352 -381 469 -500 28 -28 79 -82 115 -120 36 -39 105 -113
155 -165 177 -187 393 -416 446 -474 139 -152 314 -340 379 -406 25 -25 76
-79 115 -120 38 -41 108 -115 155 -165 47 -49 146 -155 220 -235 143 -153 273
-290 432 -455 53 -55 124 -129 158 -165 34 -36 137 -144 228 -240 189 -198
300 -316 322 -340 17 -19 105 -113 230 -245 47 -50 109 -117 139 -150 30 -33
95 -103 145 -156 50 -52 107 -113 126 -135 97 -108 264 -289 341 -369 47 -49
101 -106 119 -125 102 -110 286 -306 355 -379 102 -107 115 -121 260 -277 66
-71 158 -170 205 -219 47 -50 146 -155 220 -235 74 -79 142 -151 151 -159 8
-9 49 -52 90 -96 184 -199 590 -632 763 -815 81 -85 387 -409 486 -515 60 -64
106 -112 355 -376 141 -148 402 -425 490 -518 44 -47 98 -104 120 -127 22 -23
67 -70 99 -105 33 -35 119 -125 190 -199 181 -188 276 -288 386 -410 237 -261
438 -476 623 -665 l88 -90 -5 -75 c-3 -41 -5 -87 -6 -102 0 -16 -5 -28 -11
-28 -10 0 -88 70 -179 160 -84 85 -532 555 -614 645 -28 30 -96 102 -285 301
-58 60 -135 141 -171 180 -78 84 -268 282 -489 509 -173 178 -305 316 -406
425 -32 36 -102 110 -155 166 -52 55 -117 125 -145 155 -27 30 -109 117 -181
194 -72 77 -166 179 -210 226 -93 102 -569 613 -664 714 -37 39 -145 153 -241
255 -96 102 -224 239 -284 305 -60 66 -159 174 -221 240 -61 66 -178 192 -259
280 -149 160 -251 268 -439 465 -128 134 -368 388 -567 600 -85 91 -163 174
-174 185 -11 12 -72 77 -135 145 -138 149 -273 291 -476 500 -156 160 -357
369 -409 425 -72 76 -196 207 -280 295 -138 146 -357 378 -480 510 -38 42
-106 114 -150 160 -44 47 -123 132 -175 189 -52 57 -104 114 -115 125 -11 12
-97 102 -190 201 -94 99 -191 202 -215 229 -25 28 -81 88 -126 135 -44 48
-114 121 -155 165 -41 43 -92 97 -114 120 -22 22 -96 102 -165 176 -68 74
-152 164 -185 200 -34 36 -86 92 -116 125 -30 33 -81 89 -115 125 -33 36 -112
121 -175 190 -62 69 -116 127 -119 130 -3 3 -116 124 -250 270 -134 146 -282
306 -330 355 -47 50 -135 142 -196 205 -61 63 -135 141 -165 173 -30 32 -72
77 -93 100 -21 23 -118 125 -215 227 -97 102 -234 248 -306 325 -71 76 -166
178 -210 225 -74 78 -121 129 -276 295 -151 162 -226 251 -217 256 5 3 59 5
119 4 l111 -1 81 -85z m837 23 c36 -37 128 -137 205 -222 77 -85 154 -171 172
-190 17 -19 41 -46 53 -60 12 -14 45 -50 74 -80 53 -56 99 -107 241 -265 44
-49 110 -121 146 -160 36 -38 126 -135 199 -215 181 -196 322 -348 455 -490
86 -91 175 -187 280 -300 44 -47 102 -110 131 -140 28 -30 82 -89 119 -130 38
-41 137 -147 219 -235 232 -246 282 -300 411 -440 66 -71 176 -188 245 -260
69 -71 170 -177 225 -235 55 -58 197 -206 316 -330 119 -124 241 -252 271
-285 107 -118 366 -398 494 -534 44 -47 102 -111 130 -141 27 -30 87 -95 134
-144 47 -49 103 -107 125 -130 22 -23 64 -69 94 -102 45 -50 253 -273 286
-308 6 -6 60 -65 119 -131 162 -179 427 -464 572 -615 39 -41 88 -93 109 -115
20 -22 62 -67 93 -100 153 -164 196 -210 312 -335 69 -74 161 -173 206 -220
45 -47 96 -101 115 -121 121 -128 411 -433 527 -554 48 -50 123 -129 166 -175
44 -47 116 -124 160 -171 45 -47 104 -110 131 -140 76 -80 489 -514 639 -669
72 -75 167 -174 211 -221 170 -182 301 -323 318 -343 10 -12 37 -41 61 -66 23
-25 69 -74 101 -110 48 -53 223 -243 270 -294 61 -66 182 -195 235 -251 36
-38 95 -101 130 -140 35 -38 132 -142 215 -230 83 -88 205 -218 270 -290 198
-216 430 -462 577 -611 l138 -142 0 -98 c0 -55 -4 -105 -9 -112 -8 -14 -141
113 -345 329 -50 52 -137 144 -195 205 -58 60 -131 137 -160 170 -30 32 -87
93 -125 134 -39 42 -118 127 -176 189 -108 117 -120 130 -249 266 -41 44 -109
116 -150 160 -42 44 -114 121 -161 170 -69 73 -252 267 -410 435 -74 79 -369
390 -460 485 -177 184 -283 295 -381 400 -101 107 -251 264 -445 465 -67 69
-134 139 -150 156 -16 17 -56 60 -89 95 -32 35 -89 96 -125 134 -225 241 -345
369 -406 435 -38 42 -115 126 -172 186 -56 61 -111 122 -123 135 -30 35 -276
296 -410 434 -63 66 -155 163 -204 215 -49 52 -137 145 -195 205 -58 61 -157
166 -220 235 -63 69 -139 152 -170 185 -31 33 -81 87 -111 120 -104 115 -568
614 -683 735 -45 47 -112 119 -151 160 -105 114 -217 231 -355 375 -69 72
-188 198 -265 280 -77 82 -189 202 -250 265 -198 209 -279 294 -345 365 -36
39 -155 165 -265 280 -111 116 -239 251 -285 300 -47 50 -150 160 -230 245
-80 85 -175 187 -210 225 -35 39 -121 130 -190 204 -69 74 -158 171 -199 215
-41 45 -102 110 -136 146 -56 60 -274 299 -469 515 -45 49 -106 116 -137 150
-31 33 -89 96 -130 140 -41 44 -137 152 -214 240 -77 88 -192 216 -255 285
-63 69 -137 150 -164 180 -42 47 -219 239 -281 304 -29 31 -125 153 -125 159
0 3 48 6 108 6 l107 1 65 -68z m756 58 c6 0 51 -44 99 -97 78 -87 190 -207
460 -493 44 -47 107 -114 140 -150 33 -36 127 -136 210 -224 82 -87 155 -164
160 -170 77 -84 161 -174 214 -231 36 -38 111 -119 166 -180 55 -60 145 -157
200 -215 55 -58 154 -163 220 -235 66 -71 135 -145 153 -164 18 -19 92 -100
165 -180 72 -80 222 -242 332 -361 110 -119 274 -296 365 -395 91 -99 201
-218 245 -265 44 -47 137 -146 206 -220 69 -74 163 -175 210 -225 46 -49 106
-115 134 -145 115 -125 204 -221 295 -315 53 -55 119 -125 146 -154 27 -30 58
-64 70 -75 12 -12 57 -59 100 -106 43 -47 151 -162 239 -255 88 -94 192 -204
231 -245 38 -41 122 -129 185 -195 63 -66 157 -165 209 -221 236 -249 280
-295 360 -380 47 -49 139 -148 205 -219 66 -71 156 -168 200 -214 44 -47 116
-123 160 -170 44 -47 130 -137 190 -200 165 -172 162 -168 285 -302 63 -68
142 -153 176 -189 33 -36 110 -119 170 -184 60 -66 125 -136 144 -156 19 -20
91 -97 160 -171 69 -73 159 -170 201 -214 41 -44 98 -105 125 -135 73 -80 316
-343 398 -430 39 -41 130 -138 201 -215 71 -77 161 -174 200 -215 67 -71 136
-145 266 -285 172 -185 284 -306 391 -420 31 -33 66 -71 78 -85 12 -14 65 -70
118 -125 53 -55 141 -147 196 -205 197 -206 413 -426 492 -501 l80 -75 -2
-118 c-1 -64 -4 -120 -7 -122 -8 -8 -133 105 -242 217 -255 265 -610 640 -706
744 -35 39 -199 216 -364 394 -165 177 -336 362 -379 409 -44 48 -129 141
-190 206 -107 115 -152 164 -315 341 -41 44 -131 139 -201 210 -69 72 -227
238 -350 370 -124 132 -281 298 -350 370 -216 224 -331 345 -495 520 -87 94
-196 208 -240 255 -92 95 -204 214 -290 308 -32 34 -91 97 -132 140 -164 170
-441 463 -544 576 -86 94 -221 237 -384 406 -50 52 -122 129 -160 170 -38 41
-121 129 -184 195 -92 96 -251 267 -446 479 -41 45 -289 313 -379 410 -158
171 -202 218 -228 247 -35 39 -202 221 -213 233 -6 6 -37 40 -70 76 -103 114
-296 321 -411 440 -60 63 -146 153 -190 200 -43 47 -136 146 -206 220 -69 74
-139 149 -155 165 -15 17 -95 103 -178 190 -82 88 -179 191 -215 230 -36 38
-91 97 -122 130 -31 33 -69 74 -84 90 -15 17 -113 120 -218 230 -304 318 -360
376 -422 445 -32 35 -102 109 -154 164 -103 108 -104 109 -169 182 -25 27 -79
87 -122 134 -42 47 -121 135 -175 195 -54 61 -126 139 -160 175 -82 87 -315
361 -322 378 -1 5 100 7 224 2z m1710 -26 c16 -17 43 -47 59 -66 68 -79 453
-506 525 -583 94 -98 312 -336 395 -430 39 -43 79 -88 90 -99 11 -12 74 -80
140 -151 66 -72 127 -137 135 -145 8 -8 67 -71 130 -140 111 -121 360 -387
505 -539 38 -40 75 -79 80 -85 18 -22 148 -160 245 -261 52 -55 160 -170 239
-255 80 -85 179 -191 220 -236 42 -44 148 -159 236 -255 88 -95 198 -214 245
-264 167 -177 518 -559 679 -739 50 -57 237 -259 306 -331 17 -18 52 -56 79
-86 27 -30 104 -112 171 -184 66 -71 152 -164 190 -205 88 -96 165 -178 290
-309 55 -58 138 -146 185 -196 47 -49 87 -92 90 -95 3 -3 43 -45 90 -95 201
-215 248 -265 325 -345 45 -47 141 -150 215 -230 73 -80 161 -174 196 -210 34
-36 72 -77 85 -91 66 -73 134 -147 258 -278 75 -79 141 -149 146 -156 6 -6 57
-60 115 -121 58 -60 145 -152 194 -204 49 -52 122 -129 161 -170 39 -41 115
-124 170 -184 55 -60 109 -119 120 -131 11 -11 65 -70 120 -130 123 -134 118
-128 185 -201 183 -197 353 -377 483 -510 l147 -152 0 -111 c0 -76 -4 -111
-11 -111 -18 0 -434 422 -729 740 -74 80 -200 215 -281 300 -80 85 -206 220
-279 300 -74 80 -188 202 -254 271 -67 69 -161 168 -211 220 -49 52 -167 175
-262 274 -94 99 -183 194 -198 210 -15 17 -62 66 -104 110 -42 44 -128 136
-190 205 -63 69 -119 130 -125 135 -6 6 -33 35 -60 65 -47 53 -72 79 -286 305
-52 55 -138 147 -190 205 -52 58 -125 137 -161 175 -37 39 -93 99 -125 135
-33 35 -88 96 -124 135 -36 39 -105 115 -155 170 -49 54 -124 135 -166 180
-41 44 -98 105 -125 135 -58 63 -260 283 -414 450 -58 63 -162 176 -230 250
-68 74 -156 169 -195 210 -92 98 -324 347 -400 430 -62 67 -136 146 -291 309
-49 52 -96 102 -104 111 -8 8 -51 54 -95 101 -44 46 -143 152 -220 234 -77 83
-194 206 -261 275 -113 117 -258 269 -335 351 -19 20 -93 99 -165 175 -72 76
-236 254 -364 394 -129 140 -259 282 -290 315 -32 33 -82 87 -111 119 -30 33
-61 67 -69 76 -8 8 -57 63 -109 120 -52 58 -129 143 -171 190 -75 83 -156 175
-334 375 -137 154 -147 165 -215 250 -36 44 -71 87 -78 96 -12 15 -4 16 100
15 114 -1 114 -1 143 -32z m-756 -76 c110 -121 286 -312 386 -418 38 -41 106
-115 150 -165 43 -49 97 -110 120 -135 22 -25 69 -76 104 -115 146 -161 263
-287 385 -415 78 -82 232 -248 320 -345 16 -16 60 -64 99 -106 39 -41 91 -97
115 -125 65 -71 282 -305 311 -334 23 -23 218 -231 290 -310 17 -19 64 -69
104 -110 57 -60 243 -262 291 -316 6 -6 39 -43 75 -80 139 -148 209 -224 320
-344 63 -68 156 -167 205 -220 50 -52 121 -129 159 -170 38 -41 108 -116 155
-165 251 -264 443 -467 496 -525 33 -36 99 -105 146 -155 47 -49 112 -119 144
-155 54 -60 236 -259 261 -284 5 -6 34 -38 63 -71 30 -33 88 -96 130 -140 77
-81 316 -337 425 -455 33 -36 96 -103 141 -150 94 -101 173 -186 310 -335 205
-224 333 -362 361 -389 11 -12 45 -48 74 -81 29 -33 122 -132 205 -220 84 -88
214 -227 290 -310 217 -235 391 -422 484 -519 48 -49 100 -104 116 -121 17
-18 71 -75 120 -127 234 -245 477 -501 545 -573 41 -44 77 -82 80 -85 3 -3 50
-54 105 -115 338 -372 504 -547 865 -913 l45 -45 -3 -126 c-2 -69 -5 -128 -8
-131 -3 -3 -12 4 -20 15 -8 11 -94 101 -192 200 -97 99 -220 225 -272 280 -52
55 -144 152 -205 215 -61 63 -146 153 -190 200 -43 47 -117 126 -165 175 -47
50 -135 144 -195 210 -59 66 -113 125 -119 130 -6 6 -33 35 -60 65 -27 30
-140 150 -250 265 -252 263 -287 301 -476 510 -186 205 -163 180 -231 251 -30
33 -176 190 -324 349 -147 160 -316 342 -375 405 -59 63 -118 127 -131 141
-226 250 -342 376 -520 563 -47 50 -121 129 -165 176 -43 48 -142 153 -219
234 -149 158 -151 161 -234 252 -29 32 -92 100 -140 149 -47 50 -158 167 -246
260 -88 93 -217 228 -287 300 -69 71 -143 148 -163 170 -20 22 -85 90 -144
150 -58 61 -140 146 -181 190 -41 44 -113 121 -160 170 -120 126 -513 552
-649 704 -62 69 -116 128 -120 131 -3 3 -58 61 -120 130 -63 69 -124 134 -135
146 -12 11 -52 56 -91 99 -38 44 -77 86 -85 95 -8 9 -60 65 -115 125 -110 120
-113 123 -235 251 -47 50 -137 146 -200 215 -63 68 -151 162 -195 209 -45 47
-101 107 -126 135 -24 27 -85 92 -135 145 -120 126 -286 306 -583 629 -134
146 -296 322 -360 390 -64 68 -120 129 -126 135 -5 6 -46 52 -90 101 -108 122
-158 176 -239 262 l-69 73 130 0 130 0 93 -102z"/>
<path d="M7970 15684 c0 -12 125 -147 505 -544 61 -63 140 -146 175 -184 36
-38 76 -81 90 -96 14 -14 144 -157 290 -316 145 -159 305 -332 356 -384 162
-169 424 -454 597 -650 69 -79 268 -291 402 -430 124 -127 259 -270 386 -405
31 -33 132 -141 225 -240 92 -99 191 -205 219 -235 27 -30 91 -98 140 -150
190 -199 254 -267 320 -340 38 -41 90 -97 116 -125 41 -44 188 -206 332 -365
27 -30 77 -84 111 -120 34 -36 119 -128 191 -205 162 -174 262 -280 390 -415
115 -120 272 -291 335 -365 24 -27 69 -77 100 -110 31 -33 75 -80 96 -105 21
-24 48 -53 60 -65 11 -11 68 -72 125 -135 192 -212 355 -388 660 -709 96 -101
223 -236 283 -300 199 -212 380 -405 446 -476 36 -38 94 -100 130 -138 l65
-68 3 3834 3 3833 -3533 0 c-1943 -1 -3552 2 -3575 7 -24 4 -43 4 -43 1z"/>
</g>
</svg>
