<?xml version="1.0" encoding="UTF-8"?>
<svg width="27px" height="27px" viewBox="0 0 27 27" version="1.1" xmlns="http://www.w3.org/2000/svg" xmlns:xlink="http://www.w3.org/1999/xlink">
    <!-- Generator: sketchtool 52.2 (67145) - http://www.bohemiancoding.com/sketch -->
    <title>84BF6608-04E8-4B50-8BD2-CCC3E2996B80</title>
    <desc>Created with sketchtool.</desc>
    <g id="Landing" stroke="none" stroke-width="1" fill="none" fill-rule="evenodd">
        <g id="Artboard" transform="translate(-104.000000, -941.000000)" fill="#F9F9F9">
            <g id="contact" transform="translate(100.000000, 885.000000)">
                <g id="if_linkedin_square_color_107091" transform="translate(4.000000, 56.000000)">
                    <path d="M21.07665,19.86165 L21.07665,14.59125 C21.07665,11.76795 19.56915,10.45395 17.55945,10.45395 C15.93765,10.45395 15.2109,11.34585 14.8059,11.9718 L14.8059,10.6695 L11.7504,10.6695 C11.7909,11.53215 11.7504,19.8621 11.7504,19.8621 L14.8059,19.8621 L14.8059,14.72805 C14.8059,14.45355 14.8257,14.17905 14.9067,13.9824 C15.1272,13.43385 15.62985,12.8655 16.4736,12.8655 C17.5797,12.8655 18.0216,13.70835 18.0216,14.9436 L18.0216,19.86165 L21.07665,19.86165 Z M8.53155,9.4149 C9.5967,9.4149 10.26045,8.70885 10.26045,7.82595 C10.24065,6.9246 9.5967,6.23835 8.5518,6.23835 C7.5069,6.23835 6.82335,6.9246 6.82335,7.82595 C6.82335,8.70885 7.48665,9.4149 8.5122,9.4149 L8.53155,9.4149 Z M10.0593,19.86165 L10.0593,10.6695 L7.00425,10.6695 L7.00425,19.86165 L10.0593,19.86165 Z M0,0 L27,0 L27,27 L0,27 L0,0 Z" id="Shape"></path>
                </g>
            </g>
        </g>
    </g>
</svg>